<?xml version="1.0" standalone="no"?>
<!DOCTYPE svg PUBLIC "-//W3C//DTD SVG 20010904//EN"
 "http://www.w3.org/TR/2001/REC-SVG-20010904/DTD/svg10.dtd">
<svg version="1.0" xmlns="http://www.w3.org/2000/svg"
 width="768.000000pt" height="768.000000pt" viewBox="0 0 768.000000 768.000000"
 preserveAspectRatio="xMidYMid meet">
<metadata>
Created by potrace 1.11, written by Peter Selinger 2001-2013
</metadata>
<g transform="translate(0.000000,768.000000) scale(0.100000,-0.100000)"
fill="#000000" stroke="none">
<path d="M3709 7197 c-123 -42 -177 -93 -271 -257 -74 -129 -198 -343 -543
-940 -160 -278 -396 -687 -525 -910 -128 -223 -257 -445 -286 -495 -29 -49
-211 -364 -404 -700 -193 -335 -378 -655 -410 -710 -32 -55 -192 -332 -355
-615 -164 -283 -426 -738 -583 -1010 -162 -279 -296 -523 -309 -560 -42 -121
-22 -258 52 -365 43 -63 97 -108 173 -143 l57 -27 3522 -3 c3514 -2 3522 -2
3576 18 164 61 262 193 275 366 8 129 0 148 -262 599 -67 116 -203 350 -301
520 -341 592 -877 1521 -935 1620 -32 55 -192 332 -355 615 -164 283 -440 763
-615 1065 -175 303 -367 636 -427 740 -60 105 -160 278 -222 385 -62 107 -172
298 -245 424 -72 125 -146 245 -163 266 -104 121 -289 170 -444 117z m293 -34
c75 -35 119 -71 157 -127 15 -22 170 -286 343 -586 391 -677 925 -1604 1240
-2150 132 -228 263 -455 292 -505 113 -195 185 -319 471 -815 163 -283 323
-560 355 -615 417 -716 764 -1329 781 -1378 17 -50 20 -77 16 -141 -10 -147
-91 -267 -226 -333 l-56 -28 -3535 0 -3535 0 -58 28 c-195 96 -279 329 -189
521 24 50 307 544 642 1121 32 55 167 289 300 520 133 231 268 465 300 520 50
85 413 716 693 1200 44 77 101 176 127 220 26 44 175 303 332 575 795 1378
985 1707 1034 1790 67 113 153 183 260 210 71 17 187 5 256 -27z"/>
<path d="M3767 7119 c-57 -13 -114 -46 -155 -88 -20 -21 -97 -143 -171 -272
-74 -129 -158 -274 -187 -324 -29 -49 -186 -322 -349 -605 -164 -283 -449
-778 -635 -1100 -186 -322 -471 -817 -635 -1100 -163 -283 -323 -560 -355
-615 -32 -55 -215 -372 -407 -705 -192 -333 -439 -760 -549 -950 -109 -190
-207 -370 -217 -400 -48 -140 24 -302 168 -378 l50 -27 3515 0 3515 0 47 23
c65 32 125 94 156 160 22 46 27 72 27 134 0 96 7 82 -387 763 -162 281 -449
778 -638 1105 -189 327 -501 867 -693 1200 -472 818 -846 1466 -1267 2195
-193 336 -380 660 -415 720 -89 153 -108 179 -162 214 -82 54 -167 71 -256 50z
m131 -866 c11 -10 149 -243 307 -518 159 -275 309 -536 335 -580 26 -44 211
-363 410 -710 200 -346 486 -841 635 -1100 149 -258 435 -753 635 -1100 200
-346 417 -722 482 -835 65 -112 118 -213 118 -223 0 -31 -30 -77 -56 -87 -16
-6 -1103 -10 -2925 -10 -3181 0 -2942 -5 -2969 59 -16 39 -7 65 58 174 27 45
179 307 337 582 448 776 871 1510 935 1620 32 55 192 332 355 615 163 283 323
560 355 615 32 55 201 348 375 650 175 303 354 613 398 689 44 77 89 148 99
158 24 24 89 24 116 1z"/>
<path d="M3733 5701 c-141 -52 -218 -164 -217 -317 0 -96 43 -187 115 -244
l50 -39 -43 -22 c-132 -67 -218 -192 -237 -342 l-6 -50 -61 -13 c-174 -35
-303 -171 -335 -351 l-11 -61 -58 -21 c-145 -53 -304 -196 -379 -341 -48 -91
-81 -209 -81 -287 l0 -53 154 0 154 0 28 47 c37 63 109 139 159 168 86 50 128
58 350 64 209 6 210 6 277 38 126 59 212 167 239 301 13 61 14 62 45 62 49 0
148 34 204 70 68 43 126 111 164 190 29 62 31 71 31 185 0 117 -1 122 -34 190
-41 83 -116 162 -190 200 l-52 26 39 29 c87 63 140 184 128 294 -12 116 -89
222 -194 269 -67 29 -172 33 -239 8z"/>
<path d="M2470 3255 l0 -215 -69 0 -69 0 -40 -45 c-98 -111 -147 -259 -139
-415 8 -142 64 -275 152 -362 l28 -28 988 0 989 0 -2 423 -3 422 -762 3 -763
2 0 215 0 215 -155 0 -155 0 0 -215z"/>
<path d="M4410 2805 l0 -615 435 0 435 0 0 504 0 505 53 3 52 3 0 105 0 105
-487 3 -488 2 0 -615z m610 195 l0 -220 -200 0 -200 0 0 220 0 220 200 0 200
0 0 -220z"/>
<path d="M2220 2010 l0 -70 -140 0 -140 0 0 -215 0 -215 258 0 258 0 22 -45
c64 -132 212 -209 357 -185 160 26 269 142 291 310 l7 51 76 -3 76 -3 7 -61
c25 -234 284 -367 499 -259 97 49 179 178 179 280 l0 45 79 0 78 0 7 -61 c15
-150 135 -274 287 -298 193 -31 376 110 396 304 l6 55 228 0 229 0 0 220 0
220 -1530 0 -1530 0 0 -70z m676 -125 c102 -42 174 -149 174 -258 0 -79 -15
-125 -59 -183 -130 -170 -392 -142 -487 52 -24 49 -26 62 -22 139 4 71 9 91
34 131 76 123 229 174 360 119z m862 -9 c101 -52 157 -145 156 -261 -2 -257
-314 -380 -492 -194 -128 133 -98 349 62 448 75 47 191 49 274 7z m799 19 c77
-23 136 -74 173 -149 29 -59 32 -72 28 -138 -6 -118 -55 -194 -161 -250 -64
-34 -184 -32 -253 4 -99 52 -153 140 -154 249 0 139 68 237 195 281 62 22 107
22 172 3z"/>
<path d="M2709 1691 c-87 -87 29 -228 131 -159 38 26 56 71 46 113 -19 77
-120 103 -177 46z"/>
<path d="M3557 1694 c-34 -34 -42 -73 -23 -118 18 -43 71 -71 116 -61 37 8 76
48 83 83 7 35 -14 85 -44 106 -37 26 -101 21 -132 -10z"/>
<path d="M4399 1691 c-81 -81 18 -219 119 -167 69 36 84 115 33 167 -24 24
-38 29 -76 29 -38 0 -52 -5 -76 -29z"/>
</g>
</svg>
